<?xml version="1.0" encoding="UTF-8" standalone="no"?>
<svg
   xmlns:dc="http://purl.org/dc/elements/1.1/"
   xmlns:cc="http://creativecommons.org/ns#"
   xmlns:rdf="http://www.w3.org/1999/02/22-rdf-syntax-ns#"
   xmlns:svg="http://www.w3.org/2000/svg"
   xmlns="http://www.w3.org/2000/svg"
   xmlns:sodipodi="http://sodipodi.sourceforge.net/DTD/sodipodi-0.dtd"
   xmlns:inkscape="http://www.inkscape.org/namespaces/inkscape"
   version="1.1"
   id="svg2"
   xml:space="preserve"
   width="93.138535"
   height="152.024"
   viewBox="0 0 93.138535 152.024"
   sodipodi:docname="goodreads.svg"
   inkscape:version="1.0 (4035a4fb49, 2020-05-01)"><title
     id="title17">goodreads</title><metadata
     id="metadata8"><rdf:RDF><cc:Work
         rdf:about=""><dc:format>image/svg+xml</dc:format><dc:type
           rdf:resource="http://purl.org/dc/dcmitype/StillImage" /><dc:title>goodreads</dc:title></cc:Work></rdf:RDF></metadata><defs
     id="defs6" /><sodipodi:namedview
     inkscape:document-rotation="0"
     pagecolor="#ffffff"
     bordercolor="#666666"
     borderopacity="1"
     objecttolerance="10"
     gridtolerance="10"
     guidetolerance="10"
     inkscape:pageopacity="0"
     inkscape:pageshadow="2"
     inkscape:window-width="1841"
     inkscape:window-height="1057"
     id="namedview4"
     showgrid="false"
     fit-margin-top="0"
     fit-margin-left="0"
     fit-margin-right="0"
     fit-margin-bottom="0"
     inkscape:zoom="1.2254575"
     inkscape:cx="20.678918"
     inkscape:cy="67.384608"
     inkscape:window-x="71"
     inkscape:window-y="-8"
     inkscape:window-maximized="1"
     inkscape:current-layer="g12" /><g
     id="g10"
     inkscape:groupmode="layer"
     inkscape:label="ink_ext_XXXXXX"
     transform="matrix(1.3333333,0,0,-1.3333333,-428.54108,163.38461)"><g
       id="g12"
       transform="scale(0.1)"><path
         d="m 3566.5032,1193.4446 c -212.152,0 -320.613,-170.595 -320.613,-369.87302 0,-202.508 108.461,-360.629 307.68,-360.629 210.64,0 325.57,162.953 325.57,360.629 1.516,188.25402 -106.781,369.87302 -312.637,369.87302 z m 314.153,-532.68102 h -3.153 c -33.394,-145.071 -181.898,-229.649 -322.132,-229.649 -228.012,0 -341.313,181.965 -341.313,392.457 0,220.07802 121.453,401.81302 352.445,401.81302 156.434,0 279.176,-103.69 311,-237.621 h 3.153 v 218.501 h 31.941 V 413.69258 c 0,-223.238 -127.641,-328.487999 -341.426,-328.487999 -165.765,0 -307.8005,74.890599 -312.5778,258.429999 h 32.0468 c 6.4141,-162.7308 130.789,-226.5003 278.953,-226.5003 197.871,0 311.063,94.0193 311.063,296.5583 v 247.071"
         style="fill:#1b1b1b;fill-opacity:1;fill-rule:nonzero;stroke:none"
         id="path14" /></g></g></svg>
